HIERARCHY
ROOT Hips
{
	OFFSET 0.000000 0.000000 0.000000 
	CHANNELS 6 Xposition Yposition Zposition Zrotation Yrotation Xrotation
	JOINT LeftUpLeg
	{
		OFFSET 1.363060 -1.794630 0.839290 
		CHANNELS 3 Zrotation Yrotation Xrotation
		JOINT LeftLeg
		{
			OFFSET 2.448110 -6.726130 0.000000 
			CHANNELS 3 Zrotation Yrotation Xrotation
			JOINT LeftFoot
			{
				OFFSET 2.562200 -7.039590 0.000000 
				CHANNELS 3 Zrotation Yrotation Xrotation
				JOINT LeftToeBase
				{
					OFFSET 0.157640 -0.433110 2.322550 
					CHANNELS 3 Zrotation Yrotation Xrotation
					End Site
					{
						OFFSET 0.000000 0.000000 0.000000 
					}
				}
			}
		}
	}
	JOINT RightUpLeg
	{
		OFFSET -1.305520 -1.794630 0.839290 
		CHANNELS 3 Zrotation Yrotation Xrotation
		JOINT RightLeg
		{
			OFFSET -2.542530 -6.985550 0.000000 
			CHANNELS 3 Zrotation Yrotation Xrotation
			JOINT RightFoot
			{
				OFFSET -2.568260 -7.056230 0.000000 
				CHANNELS 3 Zrotation Yrotation Xrotation
				JOINT RightToeBase
				{
					OFFSET -0.164730 -0.452590 2.363150 
					CHANNELS 3 Zrotation Yrotation Xrotation
					End Site
					{
						OFFSET 0.000000 0.000000 0.000000 
					}
				}
			}
		}
	}
	JOINT Spine
	{
		OFFSET 0.028270 2.035590 -0.193380 
		CHANNELS 3 Zrotation Yrotation Xrotation
		JOINT Spine1
		{
			OFFSET 0.056720 2.048850 -0.042750 
			CHANNELS 3 Zrotation Yrotation Xrotation
			JOINT Neck1
			{
				OFFSET -0.054170 1.746240 0.172020 
				CHANNELS 3 Zrotation Yrotation Xrotation
				JOINT Head
				{
					OFFSET 0.104070 1.761360 -0.123970 
					CHANNELS 3 Zrotation Yrotation Xrotation
					End Site
					{
						OFFSET 0.000000 0.000000 0.000000 
					}
				}
			}
			JOINT LeftArm
			{
				OFFSET 3.362410 1.200890 -0.311210 
				CHANNELS 3 Zrotation Yrotation Xrotation
				JOINT LeftForeArm
				{
					OFFSET 4.983000 -0.000000 -0.000000 
					CHANNELS 3 Zrotation Yrotation Xrotation
					JOINT LeftHand
					{
						OFFSET 3.483560 -0.000000 -0.000000 
						CHANNELS 3 Zrotation Yrotation Xrotation
						JOINT LeftHandIndex1
						{
							OFFSET 0.715260 -0.000000 -0.000000 
							CHANNELS 3 Zrotation Yrotation Xrotation
							End Site
							{
								OFFSET 0.000000 0.000000 0.000000 
							}
						}
					}
				}
			}
			JOINT RightArm
			{
				OFFSET -3.136600 1.374050 -0.404650 
				CHANNELS 3 Zrotation Yrotation Xrotation
				JOINT RightForeArm
				{
					OFFSET -5.241900 -0.000000 -0.000000 
					CHANNELS 3 Zrotation Yrotation Xrotation
					JOINT RightHand
					{
						OFFSET -3.444170 -0.000000 -0.000000 
						CHANNELS 3 Zrotation Yrotation Xrotation
						JOINT RightHandIndex1
						{
							OFFSET -0.622530 -0.000000 -0.000000 
							CHANNELS 3 Zrotation Yrotation Xrotation
							End Site
							{
								OFFSET 0.000000 0.000000 0.000000 
							}
						}
					}
				}
			}
		}
	}
}
MOTION
Frames: 10
Frame Time: 0.041667
55.233964 17.589454 -2.211423 1.749598 -7.648793 0.978878 -26.815952 -4.083511 -15.185819 0.164393 12.121653 31.248284 1.450101 -0.795548 -7.020299 3.107100 -10.866400 -31.830600 37.886983 8.912902 6.776151 0.485625 -8.924132 24.018702 1.573936 -23.325624 -41.644029 -0.162600 2.598100 -7.161800 -0.469945 5.728938 1.195276 -12.124620 2.830937 3.945114 8.510227 6.866359 20.794662 -0.612600 5.167300 8.055300 -84.426453 1.976084 31.579974 13.527142 -18.825475 -3.662913 -2.085138 -4.172307 -3.913961 -7.125000 0.000000 0.000000 100.181884 -17.632517 36.469660 -16.307114 28.414553 -7.089375 0.924105 2.473024 -20.216268 7.125000 0.000000 0.000000 
55.252253 17.600987 -2.241011 1.878639 -8.074784 0.940537 -26.922332 -4.293182 -15.302506 0.183755 12.189255 31.403265 1.307512 -0.448096 -6.494183 3.086500 -10.833700 -31.721100 37.574193 8.889298 6.741970 0.485701 -8.878976 23.902453 1.781749 -23.479192 -41.043825 -0.201200 2.888100 -7.967500 -0.501602 5.752428 1.185553 -12.131398 2.852022 3.857412 8.608754 6.942521 20.697883 -0.539700 5.191300 8.015900 -84.246697 2.017149 31.633332 13.458682 -18.738401 -3.631487 -2.073079 -4.130061 -4.025353 -7.125000 0.000000 0.000000 100.229888 -17.478608 36.654564 -16.416597 28.516518 -7.159137 0.908519 2.483320 -20.140728 7.125000 0.000000 0.000000 
55.268095 17.616713 -2.269434 1.972412 -8.436834 0.884464 -26.933502 -4.797294 -15.335979 0.211997 12.273667 31.597524 1.231607 -0.295862 -5.980914 3.129600 -10.901900 -31.949900 37.411513 9.070667 6.837461 0.497193 -8.824914 23.762958 1.970843 -23.786508 -40.694462 -0.220800 3.025100 -8.348800 -0.541610 5.718136 1.179775 -12.201633 2.852797 3.804646 8.712972 6.965125 20.607977 -0.454600 5.187700 7.992800 -83.994286 2.050586 31.850885 13.416304 -18.688345 -3.601482 -2.105327 -4.135096 -4.303407 -7.125000 0.000000 0.000000 100.383860 -17.317513 36.894886 -16.567398 28.661838 -7.262726 0.846149 2.556525 -19.935565 7.125000 0.000000 0.000000 
55.286151 17.629293 -2.292615 1.886039 -8.654136 0.841380 -26.717837 -5.664136 -15.271144 0.245179 12.371116 31.825720 1.112296 -0.001515 -5.420836 3.527200 -11.503100 -33.996100 37.470359 9.248473 6.951419 0.518524 -8.772187 23.610393 2.119286 -24.153456 -40.576975 -0.248500 3.207700 -8.857700 -0.567362 5.702927 1.184745 -12.361360 2.870453 3.814432 8.770546 6.867830 20.533977 -0.397000 5.126300 7.987000 -83.749701 1.999540 32.314781 13.371530 -18.618917 -3.564024 -2.147747 -4.173260 -4.574125 -7.125000 0.000000 0.000000 100.633587 -17.216972 36.852102 -16.682712 28.778286 -7.339563 0.817328 2.600962 -19.678343 7.125000 0.000000 0.000000 
55.308284 17.637331 -2.311836 1.800574 -8.791840 0.780023 -26.487747 -6.680471 -15.153932 0.293179 12.486771 32.104047 1.111297 -0.077813 -4.811779 4.038600 -12.211700 -36.484900 37.559236 9.495717 7.144128 0.550522 -8.698737 23.415114 2.170209 -24.361436 -40.639876 -0.249600 3.214800 -8.877300 -0.587533 5.732466 1.204651 -12.630407 2.906462 3.795657 8.453245 6.960685 20.237260 -0.619800 5.145400 7.828100 -83.517655 1.849333 32.656370 13.272764 -18.460159 -3.504217 -2.160886 -4.149951 -4.325445 -7.125000 0.000000 0.000000 100.778339 -17.202886 36.853216 -16.783164 28.899075 -7.407285 0.821809 2.604536 -19.703498 7.125000 0.000000 0.000000 
55.323311 17.641991 -2.331290 1.824021 -9.059356 0.689491 -26.294107 -7.287119 -15.139387 0.358432 12.591890 32.397204 1.380139 -1.025977 -4.081382 3.943900 -12.085300 -36.034600 37.518156 9.650548 7.332544 0.574364 -8.623210 23.235122 2.156693 -24.270362 -40.577809 -0.223800 3.045100 -8.404300 -0.615048 5.800164 1.219986 -12.802516 2.960343 3.796388 8.341025 6.812241 20.129244 -0.688100 5.057900 7.787000 -83.316538 1.664873 32.675155 13.182857 -18.310509 -3.456076 -2.145894 -4.077394 -3.760717 -7.125000 0.000000 0.000000 100.755128 -17.131786 37.195268 -16.886063 29.018504 -7.476705 0.812104 2.619454 -20.008298 7.125000 0.000000 0.000000 
55.329485 17.644553 -2.348414 1.801688 -9.409027 0.636186 -26.014859 -7.558667 -15.200805 0.417518 12.667040 32.640357 1.591920 -1.787815 -3.462258 3.707300 -11.760400 -34.889500 37.526481 9.740909 7.470048 0.590968 -8.567489 23.096617 2.161616 -24.182297 -40.447554 -0.204600 2.912400 -8.034900 -0.635448 5.893234 1.225293 -12.876088 3.014692 3.746074 8.221013 7.003336 19.911904 -0.744800 5.121400 7.675800 -83.160542 1.562570 32.599060 13.136678 -18.238907 -3.435728 -2.116334 -4.032849 -3.406835 -7.125000 0.000000 0.000000 100.746679 -17.034562 37.527301 -16.925746 29.051569 -7.504746 0.798224 2.627191 -20.168962 7.125000 0.000000 0.000000 
55.336358 17.646883 -2.357267 1.795711 -9.714211 0.601678 -25.832480 -7.898176 -15.154103 0.454399 12.721220 32.805723 1.623396 -1.917735 -3.250972 3.884800 -12.005600 -35.751700 37.591545 10.045760 7.703541 0.611338 -8.514524 22.972113 2.163887 -24.251825 -40.522011 -0.185900 2.776800 -7.658000 -0.651731 5.949635 1.222926 -12.938255 3.046783 3.680659 8.096538 7.158228 19.735892 -0.809500 5.172800 7.571500 -83.039981 1.587223 32.562325 13.115656 -18.215825 -3.421571 -2.111805 -4.042578 -3.406280 -7.125000 0.000000 0.000000 100.776170 -17.010865 37.709637 -16.941734 29.078725 -7.534134 0.782740 2.608810 -20.084029 7.125000 0.000000 0.000000 
55.344629 17.649912 -2.356684 1.733849 -10.033353 0.574841 -25.678849 -8.433626 -14.923964 0.470127 12.746911 32.878859 1.597971 -1.804960 -3.474413 4.120700 -12.319400 -36.871300 37.710033 10.342043 7.935304 0.619241 -8.479676 22.892064 2.157581 -24.096335 -40.343478 -0.113400 2.170800 -5.978000 -0.649136 5.971895 1.217378 -12.974998 3.060790 3.647720 7.965151 7.304166 19.637111 -0.866300 5.224500 7.518800 -83.012417 1.728862 32.414118 13.119115 -18.230227 -3.406205 -2.147676 -4.095951 -3.561433 -7.125000 0.000000 0.000000 100.669570 -17.015314 38.074675 -16.978920 29.136534 -7.575214 0.761849 2.601880 -19.931855 7.125000 0.000000 0.000000 
55.349521 17.648631 -2.347715 1.556852 -10.349144 0.539675 -25.495357 -9.007915 -14.535559 0.467495 12.731355 32.853454 1.544797 -1.549127 -4.057621 4.237000 -12.469300 -37.413000 38.031902 10.732173 8.232822 0.617577 -8.474943 22.885550 2.125240 -23.855590 -40.151251 -0.038600 1.267900 -3.486200 -0.631728 6.036594 1.212983 -12.991464 3.099326 3.660028 8.002284 7.443414 19.580499 -0.816300 5.276800 7.461600 -82.988484 1.888446 32.283899 13.130880 -18.267165 -3.397288 -2.187798 -4.154415 -3.742903 -7.125000 0.000000 0.000000 100.248355 -17.011229 38.976093 -17.082414 29.265766 -7.638175 0.738656 2.632250 -20.122426 7.125000 0.000000 0.000000 
